# xmcd
#
# Track frame offsets:
#	150
#	14085
#	30130
#	48055
#	58640
#	72722
#	88712
#	106180
#	122720
#	136170
#
# Disc length: 1975 seconds
#
# Revision: 0
# Processed by: cddbd v1.4PL0 Copyright (c) Steve Scherf et al.
# Submitted via: dBpowerAMP V4.0
#
DISCID=7f07b50a
DTITLE=Beto Mostarda - Sem Você, Sem Sentido
DYEAR=2002
DGENRE=Country
TTITLE0=Minha Feiticeira - (Beto Mostarda)
TTITLE1=Sem Você, Sem Sentido - (Gil Mostarda)
TTITLE2=Qualquer Palavra - (Paulinho Di Paula)
TTITLE3=Festa Animada - (Montecarlo)
TTITLE4=Cadê Você - (Beto Bostarda)
TTITLE5=Vira e Mexe - (Nick)
TTITLE6=Afrodite - (Bruno)
TTITLE7=Me Ame Mais Um Pouco - (Nick/Roger)
TTITLE8=Sou o Mesmo Boiadeiro - (Luiz Rubens de Souza)
TTITLE9=Arrasta Pé - (Giulian)
EXTD=
EXTT0=
EXTT1=
EXTT2=
EXTT3=
EXTT4=
EXTT5=
EXTT6=
EXTT7=
EXTT8=
EXTT9=
PLAYORDER=
